<svg width="24" height="24" viewBox="0 0 24 24" fill="none" xmlns="http://www.w3.org/2000/svg">
<path d="M20.9052 5.9904L17.25 7.4532L8.25001 3.8532L10.44 2.976C11.4414 2.57538 12.5586 2.57538 13.56 2.976L20.4684 5.7396C20.625 5.80194 20.772 5.88716 20.9052 5.9904ZM12.0012 9.552L15.6348 8.0976L6.63481 4.4976L3.53161 5.7396C3.37504 5.80194 3.22801 5.88596 3.09481 5.9892L12.0012 9.552ZM2.44081 7.0224C2.41314 7.15013 2.39945 7.2805 2.40001 7.4112V16.5864C2.39995 16.9462 2.50773 17.2978 2.70944 17.5958C2.91114 17.8937 3.19752 18.1244 3.53161 18.258L10.44 21.0216C10.56 21.0696 10.6812 21.1116 10.8036 21.1476L10.8 21V16.2C10.8 15.5244 11.0232 14.9004 11.4 14.4V10.6044L2.44081 7.0224ZM21.6 7.4112V13.26L21.5496 13.2492C21.4211 12.5609 21.0558 11.9393 20.5171 11.492C19.9784 11.0446 19.3002 10.7999 18.6 10.8H16.2C15.4998 10.7999 14.8216 11.0446 14.2829 11.492C13.7442 11.9393 13.379 12.5609 13.2504 13.2492C13.0232 13.2924 12.8064 13.3588 12.6 13.4484V10.6044L21.558 7.0224C21.586 7.1488 21.6 7.2784 21.6 7.4112ZM14.4 14.4V13.8C14.4 13.3226 14.5897 12.8648 14.9272 12.5272C15.2648 12.1896 15.7226 12 16.2 12H18.6C19.0774 12 19.5352 12.1896 19.8728 12.5272C20.2104 12.8648 20.4 13.3226 20.4 13.8V14.4H21C21.4774 14.4 21.9352 14.5896 22.2728 14.9272C22.6104 15.2648 22.8 15.7226 22.8 16.2V18H20.4V17.4C20.4 17.2409 20.3368 17.0883 20.2243 16.9757C20.1118 16.8632 19.9591 16.8 19.8 16.8C19.6409 16.8 19.4883 16.8632 19.3757 16.9757C19.2632 17.0883 19.2 17.2409 19.2 17.4V18H15.6V17.4C15.6 17.2409 15.5368 17.0883 15.4243 16.9757C15.3118 16.8632 15.1591 16.8 15 16.8C14.8409 16.8 14.6883 16.8632 14.5757 16.9757C14.4632 17.0883 14.4 17.2409 14.4 17.4V18H12V16.2C12 15.7226 12.1897 15.2648 12.5272 14.9272C12.8648 14.5896 13.3226 14.4 13.8 14.4H14.4ZM15.6 13.8V14.4H19.2V13.8C19.2 13.6409 19.1368 13.4883 19.0243 13.3757C18.9118 13.2632 18.7591 13.2 18.6 13.2H16.2C16.0409 13.2 15.8883 13.2632 15.7757 13.3757C15.6632 13.4883 15.6 13.6409 15.6 13.8ZM20.4 19.8V19.2H22.8V21C22.8 21.4774 22.6104 21.9352 22.2728 22.2728C21.9352 22.6104 21.4774 22.8 21 22.8H13.8C13.3226 22.8 12.8648 22.6104 12.5272 22.2728C12.1897 21.9352 12 21.4774 12 21V19.2H14.4V19.8C14.4 19.9591 14.4632 20.1117 14.5757 20.2243C14.6883 20.3368 14.8409 20.4 15 20.4C15.1591 20.4 15.3118 20.3368 15.4243 20.2243C15.5368 20.1117 15.6 19.9591 15.6 19.8V19.2H19.2V19.8C19.2 19.9591 19.2632 20.1117 19.3757 20.2243C19.4883 20.3368 19.6409 20.4 19.8 20.4C19.9591 20.4 20.1118 20.3368 20.2243 20.2243C20.3368 20.1117 20.4 19.9591 20.4 19.8Z" fill="#ACABB3"/>
</svg>
