<svg width="20" height="20" viewBox="0 0 20 20" fill="none" xmlns="http://www.w3.org/2000/svg">
<path d="M2.77523 7.42516C2.77523 7.26683 2.83356 7.1085 2.95856 6.9835C3.20023 6.74183 3.60023 6.74183 3.8419 6.9835L9.27523 12.4168C9.67523 12.8168 10.3252 12.8168 10.7252 12.4168L16.1586 6.9835C16.4002 6.74183 16.8002 6.74183 17.0419 6.9835C17.2836 7.22516 17.2836 7.62516 17.0419 7.86683L11.6086 13.3002C11.1836 13.7252 10.6086 13.9668 10.0002 13.9668C9.39189 13.9668 8.81689 13.7335 8.39189 13.3002L2.95856 7.86683C2.84189 7.74183 2.77523 7.5835 2.77523 7.42516Z" fill="#2F2E41"/>
</svg>
