<svg width="72" height="72" viewBox="0 0 72 72" fill="none" xmlns="http://www.w3.org/2000/svg">
<path d="M54.4074 10.9203L47.8074 7.43855C42.0126 4.38459 39.1152 2.85596 36 2.85596C32.8848 2.85596 29.9874 4.38128 24.1926 7.43855L23.1333 7.99894L52.5792 24.9068L65.832 18.2418C63.7002 15.8146 60.2616 14.0008 54.4074 10.9136M68.1684 22.6321L54.975 29.2639V39.331C54.975 39.9906 54.7142 40.6232 54.2501 41.0896C53.7859 41.556 53.1564 41.818 52.5 41.818C51.8436 41.818 51.2141 41.556 50.7499 41.0896C50.2858 40.6232 50.025 39.9906 50.025 39.331V31.7509L38.475 37.5537V68.856C40.8444 68.2624 43.5405 66.8432 47.8074 64.5917L54.4074 61.11C61.5057 57.3663 65.0565 55.4961 67.0299 52.1305C69 48.7681 69 44.5801 69 36.2141V35.8261C69 29.5491 69 25.623 68.1684 22.6321ZM33.525 68.856V37.5537L3.8316 22.6321C3 25.623 3 29.5491 3 35.8195V36.2074C3 44.5801 3 48.7681 4.9701 52.1305C6.9435 55.4961 10.4943 57.3696 17.5926 61.1133L24.1926 64.5917C28.4595 66.8432 31.1556 68.2624 33.525 68.856ZM6.168 18.2451L36 33.2331L47.2563 27.5794L17.9325 10.7412L17.5926 10.9203C11.7417 14.0041 8.2998 15.8179 6.168 18.2484" fill="#2F2E41"/>
</svg>
