<svg width="16" height="16" viewBox="0 0 16 16" fill="none" xmlns="http://www.w3.org/2000/svg">
<path d="M3.99996 14.6665C3.63329 14.6665 3.31951 14.5361 3.05863 14.2752C2.79774 14.0143 2.66707 13.7003 2.66663 13.3332V6.6665C2.66663 6.29984 2.79729 5.98606 3.05863 5.72517C3.31996 5.46428 3.63374 5.33361 3.99996 5.33317H4.66663V3.99984C4.66663 3.07762 4.99174 2.29162 5.64196 1.64184C6.29218 0.99206 7.07818 0.666949 7.99996 0.666504C8.92174 0.66606 9.70796 0.991171 10.3586 1.64184C11.0093 2.2925 11.3342 3.0785 11.3333 3.99984V5.33317H12C12.3666 5.33317 12.6806 5.46384 12.942 5.72517C13.2033 5.9865 13.3337 6.30028 13.3333 6.6665V13.3332C13.3333 13.6998 13.2028 14.0138 12.942 14.2752C12.6811 14.5365 12.3671 14.6669 12 14.6665H3.99996ZM7.99996 11.3332C8.36663 11.3332 8.68063 11.2027 8.94196 10.9418C9.20329 10.6809 9.33374 10.3669 9.33329 9.99984C9.33285 9.63273 9.2024 9.31895 8.94196 9.0585C8.68152 8.79806 8.36752 8.66739 7.99996 8.6665C7.6324 8.66562 7.31863 8.79628 7.05863 9.0585C6.79863 9.32073 6.66796 9.6345 6.66663 9.99984C6.66529 10.3652 6.79596 10.6792 7.05863 10.9418C7.32129 11.2045 7.63507 11.3349 7.99996 11.3332ZM5.99996 5.33317H9.99996V3.99984C9.99996 3.44428 9.80552 2.97206 9.41663 2.58317C9.02774 2.19428 8.55551 1.99984 7.99996 1.99984C7.4444 1.99984 6.97218 2.19428 6.58329 2.58317C6.1944 2.97206 5.99996 3.44428 5.99996 3.99984V5.33317Z" fill="#2F2E41"/>
</svg>
