<svg width="56" height="56" viewBox="0 0 56 56" fill="none" xmlns="http://www.w3.org/2000/svg">
<path d="M32.949 32.8463C35.5934 32.8463 37.8396 31.9324 39.6876 30.1047C41.5356 28.2769 42.5561 26.0797 42.749 23.513C40.1045 23.513 37.8396 24.4269 35.9543 26.2547C34.069 28.0824 33.0672 30.2797 32.949 32.8463ZM32.949 32.8463C32.8323 30.2797 31.8313 28.0824 29.946 26.2547C28.0606 24.4269 25.7942 23.513 23.1466 23.513C23.3411 26.0797 24.3623 28.2769 26.2103 30.1047C28.0583 31.9324 30.3037 32.8463 32.9466 32.8463M32.9466 25.8463C33.6077 25.8463 34.1623 25.6231 34.6103 25.1767C35.0583 24.7302 35.2815 24.1757 35.28 23.513V22.9297L35.8633 23.163C36.4466 23.3963 37.0401 23.4547 37.6436 23.338C38.2472 23.2213 38.7037 22.8908 39.0133 22.3463C39.3633 21.763 39.48 21.1408 39.3633 20.4797C39.2466 19.8186 38.8577 19.3534 38.1966 19.0843L37.6133 18.8557L38.1966 18.6247C38.8577 18.3556 39.2443 17.8858 39.3563 17.2153C39.4698 16.5433 39.3555 15.9203 39.0133 15.3463C38.6944 14.7926 38.2503 14.4527 37.681 14.3267C37.1116 14.2007 36.5057 14.2683 35.8633 14.5297L35.28 14.763V14.1797C35.28 13.5186 35.0567 12.9648 34.6103 12.5183C34.1638 12.0719 33.6093 11.8479 32.9466 11.8463C32.284 11.8448 31.7302 12.0688 31.2853 12.5183C30.8404 12.9679 30.6164 13.5217 30.6133 14.1797V14.763L30.03 14.5297C29.3875 14.2652 28.7816 14.1968 28.2123 14.3243C27.6445 14.4519 27.2012 14.7926 26.8823 15.3463C26.5401 15.9219 26.425 16.5441 26.537 17.213C26.649 17.885 27.0355 18.3556 27.6966 18.6247L28.28 18.8557L27.6966 19.0843C27.0355 19.3534 26.6466 19.8186 26.53 20.4797C26.4133 21.1408 26.53 21.763 26.88 22.3463C27.1911 22.8908 27.6484 23.2213 28.252 23.338C28.8555 23.4547 29.4482 23.3963 30.03 23.163L30.6133 22.9297V23.513C30.6133 24.1741 30.8373 24.7287 31.2853 25.1767C31.7333 25.6247 32.2871 25.8479 32.9466 25.8463ZM32.9466 21.1797C32.2855 21.1797 31.7317 20.9564 31.2853 20.51C30.8388 20.0636 30.6148 19.509 30.6133 18.8463C30.6117 18.1837 30.8357 17.6299 31.2853 17.185C31.7348 16.7401 32.2886 16.5161 32.9466 16.513C33.6046 16.5099 34.1592 16.7339 34.6103 17.185C35.0614 17.6361 35.2846 18.1899 35.28 18.8463C35.2753 19.5028 35.0521 20.0573 34.6103 20.51C34.1685 20.9627 33.614 21.1859 32.9466 21.1797ZM14.42 48.573C13.3746 48.7083 12.4413 48.4563 11.62 47.817C10.7986 47.1777 10.3257 46.3423 10.2013 45.311L7.33595 22.6473C7.21151 21.602 7.47051 20.6562 8.11295 19.81C8.7554 18.9638 9.59851 18.4924 10.6423 18.396L12.922 18.2257V34.6407C12.922 36.96 13.748 38.9457 15.4 40.5977C17.052 42.2497 19.0384 43.0757 21.3593 43.0757H42.791C42.7956 43.6201 42.6051 44.0984 42.2193 44.5107C41.8335 44.9229 41.3591 45.1718 40.796 45.2573L14.42 48.573ZM21.357 38.4113C20.2836 38.4113 19.3868 38.0512 18.6666 37.331C17.9464 36.6108 17.5871 35.714 17.5886 34.6407V10.7707C17.5886 9.69578 17.948 8.799 18.6666 8.08033C19.3853 7.36167 20.2828 7.00156 21.3593 7H45.2293C46.3042 7 47.201 7.36011 47.9196 8.08033C48.6383 8.80056 48.9984 9.69733 49 10.7707V34.6407C49 35.714 48.6399 36.6108 47.9196 37.331C47.1994 38.0512 46.3026 38.4113 45.2293 38.4113H21.357Z" fill="#2F2E41"/>
</svg>
