<svg width="20" height="20" viewBox="0 0 20 20" fill="none" xmlns="http://www.w3.org/2000/svg">
<path d="M15.0001 6.66667C15.0001 7.10869 14.8245 7.53262 14.5119 7.84518C14.1994 8.15774 13.7754 8.33333 13.3334 8.33333C12.8914 8.33333 12.4675 8.15774 12.1549 7.84518C11.8423 7.53262 11.6667 7.10869 11.6667 6.66667C11.6667 6.22464 11.8423 5.80072 12.1549 5.48816C12.4675 5.17559 12.8914 5 13.3334 5C13.7754 5 14.1994 5.17559 14.5119 5.48816C14.8245 5.80072 15.0001 6.22464 15.0001 6.66667Z" fill="#2F2E41"/>
<path fill-rule="evenodd" clip-rule="evenodd" d="M9.95258 1.04185H10.0476C11.9717 1.04185 13.4792 1.04185 14.6559 1.20018C15.8592 1.36185 16.8092 1.70018 17.5551 2.44518C18.3009 3.19102 18.6384 4.14102 18.8001 5.34518C18.9584 6.52102 18.9584 8.02852 18.9584 9.95268V10.026C18.9584 11.6168 18.9584 12.9185 18.8717 13.9785C18.7851 15.0452 18.6076 15.9343 18.2092 16.6743C18.0348 16.9999 17.8167 17.2935 17.5551 17.5552C16.8092 18.301 15.8592 18.6385 14.6551 18.8002C13.4792 18.9585 11.9717 18.9585 10.0476 18.9585H9.95258C8.02841 18.9585 6.52091 18.9585 5.34425 18.8002C4.14091 18.6385 3.19091 18.3002 2.44508 17.5552C1.78425 16.8943 1.44258 16.0718 1.26175 15.0502C1.08258 14.0477 1.05008 12.8002 1.04341 11.2518C1.0423 10.8574 1.04175 10.4402 1.04175 10.0002V9.95185C1.04175 8.02768 1.04175 6.52018 1.20008 5.34352C1.36175 4.14018 1.70008 3.19018 2.44508 2.44435C3.19091 1.69852 4.14091 1.36102 5.34508 1.19935C6.52091 1.04102 8.02841 1.04102 9.95258 1.04102M5.51091 2.43768C4.44591 2.58102 3.80341 2.85435 3.32925 3.32852C2.85425 3.80352 2.58175 4.44518 2.43841 5.51102C2.29341 6.59435 2.29175 8.01768 2.29175 9.99935V10.7027L3.12591 9.97268C3.49181 9.65239 3.96577 9.48315 4.45177 9.49924C4.93778 9.51533 5.39951 9.71556 5.74341 10.0593L9.31841 13.6343C9.59584 13.9117 9.96221 14.0823 10.353 14.1162C10.7439 14.15 11.1341 14.0449 11.4551 13.8193L11.7034 13.6443C12.1665 13.319 12.7263 13.1603 13.2912 13.1944C13.8561 13.2284 14.3928 13.4532 14.8134 13.8318L17.1717 15.9543C17.4101 15.456 17.5509 14.801 17.6259 13.8768C17.7076 12.8727 17.7084 11.621 17.7084 9.99935C17.7084 8.01768 17.7067 6.59435 17.5617 5.51102C17.4184 4.44518 17.1451 3.80268 16.6709 3.32768C16.1959 2.85352 15.5542 2.58102 14.4884 2.43768C13.4051 2.29268 11.9817 2.29102 10.0001 2.29102C8.01841 2.29102 6.59425 2.29268 5.51091 2.43768Z" fill="#2F2E41"/>
</svg>
