<svg width="16" height="16" viewBox="0 0 16 16" fill="none" xmlns="http://www.w3.org/2000/svg">
<path d="M8 1.33334C4.32666 1.33334 1.33333 4.32667 1.33333 8C1.33333 11.6733 4.32666 14.6667 8 14.6667C11.6733 14.6667 14.6667 11.6733 14.6667 8C14.6667 4.32667 11.6733 1.33334 8 1.33334ZM9.85999 8.35334L7.50666 10.7067C7.40666 10.8067 7.27999 10.8533 7.15333 10.8533C7.02666 10.8533 6.89999 10.8067 6.79999 10.7067C6.60666 10.5133 6.60666 10.1933 6.79999 10L8.79999 8L6.79999 6C6.60666 5.80667 6.60666 5.48667 6.79999 5.29334C6.99333 5.1 7.31333 5.1 7.50666 5.29334L9.85999 7.64667C10.06 7.84 10.06 8.16 9.85999 8.35334Z" fill="#2F2E41"/>
</svg>
