<svg width="16" height="16" viewBox="0 0 16 16" fill="none" xmlns="http://www.w3.org/2000/svg">
<path d="M7.99999 1.33334C7.12452 1.33334 6.25761 1.50578 5.44877 1.84081C4.63993 2.17584 3.90501 2.66691 3.28595 3.28596C2.03571 4.53621 1.33333 6.2319 1.33333 8.00001C1.33333 9.76812 2.03571 11.4638 3.28595 12.7141C3.90501 13.3331 4.63993 13.8242 5.44877 14.1592C6.25761 14.4942 7.12452 14.6667 7.99999 14.6667C9.7681 14.6667 11.4638 13.9643 12.714 12.7141C13.9643 11.4638 14.6667 9.76812 14.6667 8.00001C14.6667 7.12453 14.4942 6.25762 14.1592 5.44879C13.8242 4.63995 13.3331 3.90502 12.714 3.28596C12.095 2.66691 11.3601 2.17584 10.5512 1.84081C9.74238 1.50578 8.87547 1.33334 7.99999 1.33334ZM10.8 10.8L7.33333 8.66668V4.66668H8.33333V8.13334L11.3333 9.93334L10.8 10.8Z" fill="white"/>
</svg>
