<svg width="20" height="20" viewBox="0 0 20 20" fill="none" xmlns="http://www.w3.org/2000/svg">
<path d="M17.197 13.3324C17.1322 13.2543 17.0685 13.1762 17.006 13.1008C16.1467 12.0613 15.6267 11.434 15.6267 8.49141C15.6267 6.96797 15.2623 5.71797 14.5439 4.78047C14.0142 4.08789 13.2982 3.5625 12.3545 3.17422C12.3423 3.16746 12.3315 3.1586 12.3224 3.14805C11.983 2.01133 11.0541 1.25 10.0064 1.25C8.95877 1.25 8.03025 2.01133 7.6908 3.14687C7.68175 3.15706 7.67106 3.16564 7.65916 3.17227C5.45681 4.07891 4.3865 5.81836 4.3865 8.49023C4.3865 11.434 3.86736 12.0613 3.0072 13.0996C2.9447 13.175 2.88103 13.2516 2.81619 13.3313C2.64869 13.5333 2.54256 13.779 2.51037 14.0394C2.47818 14.2999 2.52127 14.5641 2.63455 14.8008C2.87556 15.3086 3.38924 15.6238 3.97556 15.6238H16.0416C16.6252 15.6238 17.1353 15.309 17.3771 14.8035C17.4909 14.5668 17.5344 14.3023 17.5025 14.0416C17.4706 13.7809 17.3646 13.5348 17.197 13.3324ZM10.0064 18.75C10.5709 18.7495 11.1247 18.5963 11.6091 18.3066C12.0936 18.0168 12.4906 17.6014 12.758 17.1043C12.7706 17.0805 12.7768 17.0538 12.776 17.0269C12.7753 16.9999 12.7676 16.9736 12.7537 16.9506C12.7397 16.9275 12.7201 16.9084 12.6966 16.8952C12.6732 16.8819 12.6467 16.875 12.6197 16.875H7.39392C7.36694 16.8749 7.34039 16.8818 7.31687 16.895C7.29334 16.9082 7.27364 16.9273 7.25967 16.9504C7.24571 16.9735 7.23796 16.9998 7.23719 17.0268C7.23641 17.0537 7.24264 17.0804 7.25525 17.1043C7.52265 17.6013 7.91957 18.0167 8.40393 18.3065C8.88828 18.5962 9.44202 18.7495 10.0064 18.75Z" fill="#2F2E41"/>
</svg>
